Coordinates
version=1
nRows=13
nColumns=22
inDegrees=yes

Units are S.I. units (second, meters, Newtons, ...)
If the header above contains a line with 'inDegrees', this indicates whether rotational values are in degrees (yes) or radians (no).

endheader
time	pelvis_tilt	pelvis_list	pelvis_rotation	pelvis_tx	pelvis_ty	pelvis_tz	hip_flexion_r	hip_adduction_r	hip_rotation_r	knee_angle_r	ankle_angle_r	subtalar_angle_r	hip_flexion_l	hip_adduction_l	hip_rotation_l	knee_angle_l	ankle_angle_l	subtalar_angle_l	lumbar_extension	lumbar_bending	lumbar_rotation
      0.01000000	      1.22336840	     -0.15447061	    -30.41238946	     -0.95993108	      0.90779401	     -0.42991993	     -1.42057966	     -0.49628138	     -6.96698352	    -10.35650973	     18.63676891	     -4.03224827	      1.61479103	     -1.73422546	     -9.15084962	    -16.67586802	     16.26305506	     -3.03156121	     -4.27215153	     -2.52793000	      4.03363221
      0.02000000	      1.22207911	     -0.15119535	    -30.40277461	     -0.95986823	      0.90778042	     -0.42986525	     -1.42410643	     -0.49637553	     -6.96576948	    -10.35843529	     18.63739891	     -4.03257680	      1.61308257	     -1.73441712	     -9.15158505	    -16.67547268	     16.26351661	     -3.03090215	     -4.26936336	     -2.52704734	      4.03565613
      0.03000000	      1.22022414	     -0.14703640	    -30.38982558	     -0.95978662	      0.90776413	     -0.42980046	     -1.42914974	     -0.49628598	     -6.96505864	    -10.35939428	     18.63919275	     -4.03295454	      1.61110582	     -1.73429071	     -9.15181395	    -16.67443445	     16.26443241	     -3.03010621	     -4.26550126	     -2.52647813	      4.03804994
      0.04000000	      1.21594827	     -0.13728842	    -30.36149498	     -0.95965425	      0.90773900	     -0.42972978	     -1.45155787	     -0.49814503	     -6.98981315	    -10.32516036	     18.66474863	     -4.03911204	      1.60953972	     -1.72802845	     -9.12538409	    -16.66573320	     16.27618189	     -3.02030074	     -4.25022434	     -2.52971942	      4.02869308
      0.05000000	      1.21393355	     -0.13296131	    -30.34577743	     -0.95955308	      0.90772004	     -0.42965572	     -1.45665387	     -0.49794713	     -6.98809639	    -10.32955107	     18.66542057	     -4.03962207	      1.60680909	     -1.72801467	     -9.12501241	    -16.66512560	     16.27679686	     -3.01975123	     -4.24876745	     -2.52889864	      4.02992519
      0.06000000	      1.21676446	     -0.12789816	    -30.30176214	     -0.95939903	      0.90770497	     -0.42960444	     -1.48835539	     -0.49968077	     -7.02933087	    -10.30085618	     18.69480103	     -4.05184688	      1.59770626	     -1.71973600	     -9.06942149	    -16.65718222	     16.29313429	     -3.00941676	     -4.24872396	     -2.53098689	      3.99872639
      0.07000000	      1.21453312	     -0.12332537	    -30.28617481	     -0.95928419	      0.90768541	     -0.42953173	     -1.49326557	     -0.50006271	     -7.02778887	    -10.30621203	     18.69441699	     -4.05251195	      1.59433808	     -1.71920140	     -9.06990598	    -16.65667556	     16.29332123	     -3.00929622	     -4.24804133	     -2.52826424	      4.00068046
      0.08000000	      1.21216055	     -0.11880055	    -30.27010120	     -0.95916508	      0.90766595	     -0.42946173	     -1.49893626	     -0.50042368	     -7.02717713	    -10.31000992	     18.69539503	     -4.05325111	      1.59085268	     -1.71821428	     -9.06940168	    -16.65566202	     16.29427243	     -3.00919155	     -4.24695427	     -2.52528376	      4.00290280
      0.09000000	      1.20920599	     -0.11405863	    -30.25397385	     -0.95903955	      0.90764532	     -0.42939594	     -1.50466751	     -0.50086770	     -7.02747358	    -10.31253888	     18.69749388	     -4.05412449	      1.58679601	     -1.71679287	     -9.06791780	    -16.65421491	     16.29596766	     -3.00911310	     -4.24649228	     -2.52158207	      4.00531251
      0.10000000	      1.21681550	     -0.11902140	    -30.21348760	     -0.95886374	      0.90764236	     -0.42935324	     -1.54276771	     -0.49804765	     -7.08185858	    -10.29093258	     18.73652743	     -4.07188863	      1.55771845	     -1.71126646	     -9.00190942	    -16.63181747	     16.32712017	     -3.00878037	     -4.25900834	     -2.51293599	      3.98839432
      0.11000000	      1.21413162	     -0.11389419	    -30.19789469	     -0.95873835	      0.90762210	     -0.42929855	     -1.54728157	     -0.50008311	     -7.07957262	    -10.29626385	     18.73582999	     -4.07278386	      1.55455701	     -1.70904268	     -9.00344757	    -16.63066501	     16.32753240	     -3.00916238	     -4.26111043	     -2.50791016	      3.98999978
      0.12000000	      1.21119592	     -0.10902277	    -30.18297330	     -0.95860846	      0.90760204	     -0.42924801	     -1.55138714	     -0.50191017	     -7.07838064	    -10.30092220	     18.73642865	     -4.07384219	      1.55017489	     -1.70636265	     -9.00395523	    -16.62842847	     16.32882200	     -3.00952980	     -4.26303002	     -2.50155647	      3.99261040
      0.13000000	      1.21927714	     -0.11499065	    -30.16293903	     -0.95844813	      0.90760315	     -0.42919917	     -1.57033536	     -0.50142394	     -7.10921653	    -10.31293882	     18.75864787	     -4.09127032	      1.51092153	     -1.70122456	     -8.96865862	    -16.59286014	     16.35277106	     -3.01449375	     -4.27981271	     -2.48845240	      3.99392769
